<svg version="1.2" xmlns="http://www.w3.org/2000/svg" viewBox="0 0 366 365" width="366" height="365"><style>.a{fill:#ef4444}.b{fill:#fff}.c{fill:#3b82f6}.d{fill:#34d399}.e{fill:#7c3aed}.f{fill:#fbbf24}.g{fill:#ffa500}</style><path class="a" d="m182.6 361.6c-99.4 0-179.8-80.4-179.8-179.9 0-99.4 80.4-179.8 179.8-179.8 99.4 0 179.8 80.4 179.8 179.8 0 99.5-80.4 179.9-179.8 179.9z"/><path class="b" d="m258.4 151.5h-45.5v-45.6q0-1-0.4-1.8-0.4-0.9-1-1.6-0.7-0.6-1.6-1-0.8-0.3-1.8-0.3h-51q-1 0-1.8 0.3-0.9 0.4-1.6 1-0.6 0.7-1 1.6-0.4 0.8-0.4 1.8v45.6h-45.5q-1 0-1.9 0.3-0.8 0.4-1.5 1.1-0.6 0.6-1 1.5-0.4 0.9-0.4 1.8v51.1q0 0.9 0.4 1.8 0.4 0.8 1 1.5 0.7 0.7 1.5 1 0.9 0.4 1.9 0.4h45.5v45.6q0 0.9 0.4 1.8 0.4 0.8 1 1.5 0.7 0.7 1.6 1 0.8 0.4 1.8 0.4h51q1 0 1.8-0.4 0.9-0.3 1.6-1 0.6-0.7 1-1.5 0.4-0.9 0.4-1.8v-45.6h45.5q1 0 1.9-0.4 0.8-0.3 1.5-1 0.6-0.7 1-1.5 0.4-0.9 0.4-1.8v-51.1q0-0.9-0.4-1.8-0.4-0.9-1-1.5-0.7-0.7-1.5-1.1-0.9-0.3-1.9-0.3z"/><path class="c" d="m182.6 361.8c-99.4 0-179.8-80.4-179.8-179.9 0-99.4 80.4-179.8 179.8-179.8 99.4 0 179.8 80.4 179.8 179.8 0 99.5-80.4 179.9-179.8 179.9z"/><path fill-rule="evenodd" class="b" d="m133.2 165.2q0.5-0.3 1.1-0.3 0.6-0.1 1.1 0 0.6 0.1 1.1 0.3 0.5 0.3 0.9 0.7 0.4 0.3 0.8 0.8 0.3 0.5 0.4 1.1 0.2 0.5 0.2 1.1v81.6q0 0.8-0.3 1.5-0.3 0.8-0.9 1.3-0.6 0.6-1.3 0.9-0.7 0.3-1.5 0.3h-46.9q-0.8 0-1.5-0.3-0.8-0.3-1.3-0.9-0.6-0.5-0.9-1.3-0.3-0.7-0.3-1.5v-43.8q0-0.5 0.1-0.9 0.1-0.5 0.3-0.9 0.2-0.4 0.5-0.7 0.3-0.4 0.6-0.7l46.9-37.8q0.4-0.3 0.9-0.5zm-2.4 12.1l-38.8 31.3v37.9h38.8z"/><path fill-rule="evenodd" class="b" d="m167.2 140.8q0.6-0.2 1.3-0.1 0.7 0.1 1.3 0.4 0.6 0.3 1.1 0.8l34.8 36.3q0.2 0.3 0.5 0.6 0.2 0.3 0.3 0.7 0.2 0.3 0.2 0.7 0.1 0.4 0.1 0.8v69.5q0 0.8-0.3 1.5-0.3 0.8-0.9 1.3-0.5 0.6-1.3 0.9-0.7 0.3-1.5 0.3h-46.9q-0.8 0-1.5-0.3-0.7-0.3-1.3-0.9-0.6-0.5-0.9-1.3-0.3-0.7-0.3-1.5v-98.3q0-0.5 0.1-1 0.2-0.5 0.4-0.9 0.3-0.5 0.6-0.8 0.4-0.4 0.8-0.7l12.1-7.5q0.6-0.4 1.3-0.5zm31.6 41.8l-31.4-32.8-7.4 4.7v92h38.8z"/><path fill-rule="evenodd" class="b" d="m253.3 149.4c0.5-0.1 1.1-0.1 1.6 0.1 0.5 0.2 1 0.6 1.3 1.1 0.3 0.4 0.5 1 0.5 1.5l-0.1 99.6q0 0.6-0.2 1.1-0.2 0.5-0.6 0.9-0.4 0.4-0.9 0.6-0.5 0.3-1.1 0.3h-30.7q-0.5 0-1.1-0.3-0.5-0.2-0.9-0.6-0.4-0.4-0.6-0.9-0.2-0.5-0.2-1.1v-68.8q0-0.3 0-0.6 0.1-0.3 0.2-0.5 0.1-0.3 0.3-0.5 0.1-0.2 0.3-0.4l30.7-30.8c0.4-0.4 0.9-0.6 1.5-0.7zm-2.3 9.5l-25.1 25.1v64.9h25.1z"/><path class="b" d="m278.2 105.8l-66.4 48.9-38.7-40.5q-0.5-0.6-1.3-0.9-0.7-0.4-1.4-0.5-0.8-0.1-1.6 0.1-0.7 0.1-1.4 0.5l-85.9 59.8c-5 3.4-0.2 11.6 4.8 8.1q41.4-28.8 82.8-57.6l38.8 40.6c1.3 1.3 4.1 1.9 5.7 0.7q34.7-25.5 69.4-51c4.9-3.6 0.2-11.8-4.8-8.2z"/><path class="d" d="m183.7 361.8c-100 0-180.9-80.9-180.9-180.9 0-100 80.9-180.9 180.9-180.9 100 0 180.9 80.9 180.9 180.9 0 100-80.9 180.9-180.9 180.9z"/><path fill-rule="evenodd" class="b" d="m267.8 251.1l-168.7-0.6c-2.4 0-4.8-0.5-7.1-1.4-2.2-1-4.3-2.3-6-4.1-1.7-1.7-3.1-3.7-4-6-0.9-2.3-1.4-4.7-1.4-7.1l0.4-102.7c0-2.4 0.5-4.8 1.4-7 0.9-2.3 2.3-4.3 4-6 1.8-1.8 3.8-3.1 6-4.1 2.3-0.9 4.7-1.4 7.1-1.4h0.1l168.7 0.6c2.4 0 4.8 0.5 7.1 1.4 2.2 1 4.2 2.3 6 4.1 1.7 1.7 3 3.7 4 6 0.9 2.2 1.4 4.7 1.4 7.1l-0.4 102.7c0 2.4-0.5 4.8-1.4 7-0.9 2.3-2.3 4.3-4 6-1.8 1.8-3.8 3.1-6.1 4.1-2.2 0.9-4.6 1.4-7 1.4zm-152-16.1l141.5 0.4c1.2 0 2.4-0.2 3.6-0.7 1.1-0.5 2.1-1.1 3-2 0.9-0.9 1.6-1.9 2-3.1 0.5-1.1 0.8-2.3 0.8-3.5l0.3-89.8c0-1.3-0.3-2.5-0.7-3.6-0.5-1.2-1.2-2.2-2.1-3.1-0.8-0.9-1.9-1.6-3-2-1.2-0.5-2.4-0.8-3.6-0.8l-147.5-0.4c-1.2 0-2.5 0.2-3.6 0.7-1.1 0.5-2.2 1.1-3 2-0.9 0.9-1.6 1.9-2.1 3.1-0.5 1.1-0.7 2.3-0.7 3.5l-0.3 89.8c0 1.3 0.2 2.5 0.7 3.6 0.5 1.2 1.1 2.2 2 3.1 0.9 0.9 1.9 1.6 3.1 2 1.1 0.5 2.3 0.8 3.6 0.8h0.3v0.1h5.7z"/><path fill-rule="evenodd" class="b" d="m247.4 141.9q0.3 0.2 0.6 0.4 0.3 0.3 0.4 0.7 0.1 0.3 0.1 0.7v52q0 0.4-0.1 0.8-0.1 0.3-0.4 0.6-0.3 0.3-0.6 0.5-0.4 0.1-0.8 0.1h-39.1q-0.4 0-0.8-0.1-0.4-0.2-0.7-0.5-0.2-0.2-0.4-0.6-0.1-0.4-0.1-0.8v-52q0-0.4 0.1-0.7 0.2-0.4 0.4-0.7 0.3-0.3 0.7-0.4 0.4-0.2 0.8-0.2h39.1q0.4 0 0.8 0.2zm-2.8 3.7h-35.2v48.1h35.2z"/><path class="b" d="m119.2 197.6h60.6c1 0 2-0.4 2.8-1.1 0.7-0.8 1.1-1.8 1.1-2.8 0-1-0.4-2-1.1-2.8-0.8-0.7-1.8-1.1-2.8-1.1h-60.6c-1.1 0-2.1 0.4-2.8 1.1-0.7 0.8-1.1 1.8-1.1 2.8 0 1 0.4 2 1.1 2.8 0.7 0.7 1.7 1.1 2.8 1.1z"/><path class="b" d="m208.1 208.4h-89c-1 0-2 0.4-2.7 1.1-0.8 0.7-1.2 1.7-1.2 2.8 0 1 0.4 2 1.2 2.7 0.7 0.8 1.7 1.2 2.7 1.2h89c1.1 0 2.1-0.4 2.8-1.2 0.7-0.7 1.1-1.7 1.1-2.7 0-1.1-0.4-2.1-1.1-2.8-0.7-0.7-1.7-1.1-2.8-1.1z"/><path class="e" d="m182.2 364.4c-100.7 0-182.2-81.5-182.2-182.2 0-100.8 81.5-182.2 182.2-182.2 100.8 0 182.2 81.4 182.2 182.2 0 100.7-81.4 182.2-182.2 182.2z"/><path fill-rule="evenodd" class="b" d="m143.7 275.3c-12.3-5.1-23.4-12.5-32.7-21.9-9.4-9.3-16.8-20.4-21.9-32.7-5-12.2-7.7-25.3-7.7-38.5 0-40.8 24.6-77.6 62.3-93.2 37.6-15.6 81-6.9 109.8 21.9 28.9 28.8 37.5 72.2 21.9 109.9-15.6 37.6-52.4 62.2-93.2 62.2-13.2 0-26.3-2.6-38.5-7.7zm8.1-166.6c-9.6 4-18.4 9.9-25.8 17.3-7.3 7.4-13.2 16.1-17.2 25.8-4 9.6-6.1 19.9-6.1 30.4 0 32.1 19.4 61.1 49.1 73.4 29.7 12.3 63.9 5.5 86.7-17.2 22.7-22.7 29.5-56.9 17.2-86.6-12.3-29.8-41.3-49.1-73.5-49.1-10.4 0-20.7 2-30.4 6z"/><path fill-rule="evenodd" class="b" d="m159.5 233.7q-0.5-0.4-0.8-1-0.4-0.5-0.5-1.1-0.2-0.7-0.2-1.3v-96.2c0-0.9 0.2-1.7 0.7-2.5 0.4-0.7 1-1.3 1.8-1.7 0.8-0.4 1.6-0.6 2.5-0.5 0.8 0 1.6 0.3 2.3 0.7l71.5 48.2c0.6 0.4 1.1 1 1.5 1.7 0.3 0.6 0.5 1.4 0.5 2.2 0 0.8-0.2 1.5-0.5 2.2-0.4 0.7-0.9 1.3-1.5 1.7l-71.5 48.1q-0.2 0.2-0.6 0.4-0.3 0.1-0.6 0.2-0.3 0.1-0.7 0.2-0.3 0-0.7 0-0.3 0-0.6 0-0.2-0.1-0.5-0.1-0.3-0.1-0.6-0.2-0.2-0.1-0.5-0.2-0.6-0.3-1-0.8zm7.9-12.3l58.3-39.2-58.3-39.3z"/><path class="f" d="m182.8 364.5c-100.8 0-182.2-81.5-182.2-182.3 0-100.7 81.4-182.2 182.2-182.2 100.8 0 182.2 81.5 182.2 182.2 0 100.8-81.4 182.3-182.2 182.3z"/><path fill-rule="evenodd" class="b" d="m312.3 169.6c0 16.2-5.7 29.4-16.4 38.4-9.6 8.1-22.6 12.2-38.6 12.1q-2.1 0-4.2-0.1-2.2-0.1-4.3-0.2-2.1-0.2-4.2-0.5-2.2-0.2-4.3-0.6-1.5 1.7-3.3 3.5c17.1 4.7 25.8 11 25.8 19 0 20.5-57.9 25.9-88.5 25.9-30.6 0-88.5-5.4-88.5-25.9 0-8 8.6-14.3 25.8-19-21.7-21.7-34-53.2-34-86.7v-5.1h0.8c1.4-3.8 6.8-8.3 29.9-11.9 17.2-2.7 40.1-4.2 64.4-4.2 24.3 0 47.1 1.5 64.4 4.2 22.8 3.5 28.3 8 29.8 11.7h4.1v0.9c19.3 2.3 41.3 13.7 41.3 38.5zm-9.5 0c0-11.4-6-19.8-17.8-24.9q-1.7-0.7-3.4-1.3-1.7-0.6-3.5-1.1-1.8-0.4-3.6-0.8-1.8-0.4-3.6-0.7c0 0.7-0.1 1.5-0.1 2.2 8.4 2.1 25.4 8.7 25.4 28.2q0 1.1-0.1 2.2 0 1.1-0.1 2.2-0.1 1.1-0.3 2.2-0.1 1-0.3 2.1-0.5 3-1.5 5.8-1 2.8-2.5 5.4-1.5 2.6-3.4 4.9-1.9 2.3-4.2 4.2c-6.4 5.3-14.6 8.3-24.6 9-1.4 0.2-2.9 0.2-4.4 0.2-1.9 0-4-0.1-6.6-0.4l-0.8 1.1c18.1 1.9 32.8-1.3 42.4-9.4 8.5-7.1 13-17.8 13-31.1zm-214.1-36.5c7.8 4.1 38.8 9.3 84 9.3 45.1 0 76.2-5.2 84-9.3-7.8-4.1-38.9-9.2-84-9.2-45.2 0-76.2 5.1-84 9.2zm139.7 96.9c-16.1 12.8-34.7 19.6-54.1 19.6-19.4 0-38.2-6.8-54.2-19.6-18.2 4-24.8 8.9-24.8 11.2 0 5.8 30 16.4 79 16.4 49 0 79-10.6 79-16.4 0-2.3-6.7-7.2-24.9-11.2zm33-88.8c-4.9 2.6-12.9 4.7-24.4 6.5-17.2 2.7-40.1 4.2-64.3 4.2-24.3 0-47.2-1.5-64.4-4.2-9.2-1.4-16.1-3-21-5 3.1 54.7 41.1 97.3 87 97.3 46.7 0 84.6-43.2 87.1-98.8zm6.4 23.8q-1.4 6.1-3.4 12-2 5.9-4.6 11.7-2.6 5.7-5.7 11.1c10 0.1 17.9-2.2 23.5-6.9 5.9-4.9 9-12.4 9-21.7 0-11.4-8.7-16.4-16.7-18.6q-0.7 6.3-2.1 12.4z"/><path class="g" d="m182.2 364.5c-100.7 0-182.2-81.5-182.2-182.3 0-100.7 81.5-182.2 182.2-182.2 100.8 0 182.3 81.5 182.3 182.2 0 100.8-81.5 182.3-182.3 182.3z"/><path fill-rule="evenodd" class="b" d="m272.9 174.7c0.6 23.1-6.4 44.6-15.5 65.6-6.2 14.2-17.2 35.1-34.4 37.8-7.1 1.1-14.9-0.7-21.8-2.4-12.4-3.1-21.1-5.6-33.9-1.3-17.7 5.8-29.7 7.5-42.6-8-24.6-29.7-44.7-75-27.3-112.7 6.8-14.7 19.5-25.9 35.8-27.9 16.9-2.1 30.2 7.7 45.8 10.3-1-3.4-2.3-6.7-4.1-9.8-1.7-3.1-3.9-6-6.4-8.5-2.4-2.6-5.2-4.8-8.3-6.6-3-1.9-6.3-3.4-9.7-4.4q-0.1-0.1-0.3-0.1-0.2-0.1-0.4-0.2-0.1-0.2-0.2-0.3-0.2-0.1-0.3-0.3-0.2-0.2-0.4-0.5-0.1-0.2-0.2-0.5 0-0.3 0-0.6 0-0.3 0.1-0.6c1.5-5.6 3.5-12.2 7.5-16.6 0.1-0.1 0.2-0.2 0.3-0.3q0 0 0.1 0 0-0.1 0.1-0.1 0-0.1 0.1-0.1 0 0 0.1-0.1l0.2-0.1q0.3-0.1 0.5-0.2 0.3 0 0.6 0 0.3 0.1 0.5 0.2 0.3 0.1 0.5 0.3c10.4 7.7 20.2 19.9 24.6 33 1.4-4.5 3.5-8.8 6.2-12.8 2.8-3.9 6-7.4 9.7-10.4 3.8-3 7.9-5.4 12.3-7.2 4.5-1.8 9.1-2.9 13.9-3.4q0.4 0 0.9 0.1 0.4 0.1 0.7 0.4 0.4 0.3 0.6 0.7 0.2 0.5 0.2 0.9 0 0.1 0.1 0.1 0 0.1 0 0.2 0.1 0 0.1 0.1 0.1 0.1 0.1 0.2c4.2 12.3 1.3 27.5-7 37.6-0.4 0.5-0.9 1-1.4 1.4 7.6-1.8 15.2-2.3 23.3 0.8 18.8 7.2 28.7 27.1 29.3 46.3zm-85.9-39.1q0 0.1 0 0.2 0 0.1 0 0.2 0 0 0 0.1 0 0.1-0.1 0.2c10.5-1.5 22.1-4.1 29.6-11.8 8.2-8.3 10.9-22.2 7.7-33.3-21.5 2.8-38.8 22.7-37.2 44.4zm-24.9-29.1q3.8 2.2 7.1 5 3.3 2.8 6 6.2 2.8 3.4 4.8 7.2c-3.1-12.4-11.9-24.7-21.4-32.4q-0.7 1.2-1.4 2.4-0.6 1.3-1.2 2.6-0.5 1.3-1 2.6-0.4 1.3-0.7 2.7 4.1 1.5 7.8 3.7zm96.6 96.5c5.3-23.1 3.7-57.8-24.2-65.4-10.3-2.8-20 0.7-29.9 4.1q-0.8 0.3-1.6 0.6-0.8 0.3-1.6 0.6-0.9 0.3-1.7 0.5-0.8 0.3-1.7 0.5-1.7 0.6-3.4 1-1.7 0.5-3.5 0.8-1.8 0.3-3.6 0.5-1.8 0.2-3.5 0.3-0.2 0-0.3 0-0.1 0-0.3 0-0.1 0-0.2-0.1-0.1 0-0.2 0c-16.7-1.3-30.1-13-47.6-9.7-24.4 4.5-34.1 32.2-32.6 54.2 1.4 22 12.4 41.6 24.3 59.6 7 10.6 15.4 20.9 29.5 17.4 7.9-2 15.2-6.4 23.5-6.7 17.4-0.7 34.7 14.7 50.2 0.2 15.2-14.2 23.9-38.5 28.4-58.4z"/><path class="b" d="m137.1 145.9c-17 7-25.7 28.6-22.8 45.9 0.5 3.2 5.4 1.9 4.9-1.3-2.4-14.3 5-33.8 19.3-39.7 2.9-1.2 1.6-6.1-1.4-4.9z"/><path class="b" d="m117.7 202.3c-3.3 0-3.3 5.1 0 5.1 3.2 0 3.2-5.1 0-5.1z"/></svg>