<svg version="1.2" xmlns="http://www.w3.org/2000/svg" viewBox="0 0 360 360" width="360" height="360"><style>.a{fill:#4caf50}.b{fill:#fff}</style><path class="a" d="m179.8 359.7c-99.4 0-179.8-80.4-179.8-179.9 0-99.4 80.4-179.8 179.8-179.8 99.5 0 179.9 80.4 179.9 179.8 0 99.5-80.4 179.9-179.9 179.9z"/><path class="b" d="m255.7 149.6h-45.6v-45.6q0-1-0.4-1.8-0.3-0.9-1-1.6-0.7-0.6-1.5-1-0.9-0.3-1.8-0.3h-51.1q-0.9 0-1.8 0.3-0.9 0.4-1.5 1-0.7 0.7-1.1 1.6-0.3 0.8-0.3 1.8v45.6h-45.6q-1 0-1.8 0.3-0.9 0.4-1.6 1.1-0.6 0.6-1 1.5-0.3 0.9-0.3 1.8v51.1q0 0.9 0.3 1.8 0.4 0.8 1 1.5 0.7 0.7 1.6 1 0.8 0.4 1.8 0.4h45.6v45.6q0 0.9 0.3 1.8 0.4 0.8 1.1 1.5 0.6 0.7 1.5 1 0.9 0.4 1.8 0.4h51.1q0.9 0 1.8-0.4 0.8-0.3 1.5-1 0.7-0.7 1-1.5 0.4-0.9 0.4-1.8v-45.6h45.6q0.9 0 1.8-0.4 0.8-0.3 1.5-1 0.7-0.7 1-1.5 0.4-0.9 0.4-1.8v-51.1q0-0.9-0.4-1.8-0.3-0.9-1-1.5-0.7-0.7-1.5-1.1-0.9-0.3-1.8-0.3z"/></svg>