<svg version="1.2" xmlns="http://www.w3.org/2000/svg" viewBox="0 0 362 362" width="362" height="362"><style>.a{fill:#ef4444}.b{fill:#fff}.c{fill:#3b82f6}.d{fill:#808080}</style><path class="a" d="m179.8 361.6c-99.4 0-179.8-80.4-179.8-179.9 0-99.4 80.4-179.8 179.8-179.8 99.5 0 179.9 80.4 179.9 179.8 0 99.5-80.4 179.9-179.9 179.9z"/><path class="b" d="m255.7 151.5h-45.6v-45.6q0-1-0.4-1.8-0.3-0.9-1-1.6-0.7-0.6-1.5-1-0.9-0.3-1.8-0.3h-51.1q-0.9 0-1.8 0.3-0.9 0.4-1.5 1-0.7 0.7-1.1 1.6-0.3 0.8-0.3 1.8v45.6h-45.6q-1 0-1.8 0.3-0.9 0.4-1.6 1.1-0.6 0.6-1 1.5-0.3 0.9-0.3 1.8v51.1q0 0.9 0.3 1.8 0.4 0.8 1 1.5 0.7 0.7 1.6 1 0.8 0.4 1.8 0.4h45.6v45.6q0 0.9 0.3 1.8 0.4 0.8 1.1 1.5 0.6 0.7 1.5 1 0.9 0.4 1.8 0.4h51.1q0.9 0 1.8-0.4 0.8-0.3 1.5-1 0.7-0.7 1-1.5 0.4-0.9 0.4-1.8v-45.6h45.6q0.9 0 1.8-0.4 0.8-0.3 1.5-1 0.7-0.7 1-1.5 0.4-0.9 0.4-1.8v-51.1q0-0.9-0.4-1.8-0.3-0.9-1-1.5-0.7-0.7-1.5-1.1-0.9-0.3-1.8-0.3z"/><path class="c" d="m179.8 361.8c-99.4 0-179.8-80.4-179.8-179.9 0-99.4 80.4-179.8 179.8-179.8 99.5 0 179.9 80.4 179.9 179.8 0 99.5-80.4 179.9-179.9 179.9z"/><path fill-rule="evenodd" class="b" d="m130.5 165.2q0.5-0.3 1-0.3 0.6-0.1 1.1 0 0.6 0.1 1.1 0.3 0.5 0.3 1 0.7 0.4 0.3 0.7 0.8 0.3 0.5 0.4 1.1 0.2 0.5 0.2 1.1v81.6q0 0.8-0.3 1.5-0.3 0.8-0.9 1.3-0.5 0.6-1.3 0.9-0.7 0.3-1.5 0.3h-46.9q-0.8 0-1.5-0.3-0.7-0.3-1.3-0.9-0.5-0.5-0.9-1.3-0.3-0.7-0.3-1.5v-43.8q0-0.5 0.1-0.9 0.1-0.5 0.3-0.9 0.2-0.4 0.5-0.7 0.3-0.4 0.6-0.7l46.9-37.8q0.4-0.3 1-0.5zm-2.5 12.1l-38.8 31.3v37.9h38.8z"/><path fill-rule="evenodd" class="b" d="m164.4 140.8q0.7-0.2 1.4-0.1 0.6 0.1 1.3 0.4 0.6 0.3 1 0.8l34.8 36.3q0.3 0.3 0.5 0.6 0.2 0.3 0.3 0.7 0.2 0.3 0.3 0.7 0 0.4 0 0.8v69.5q0 0.8-0.3 1.5-0.3 0.8-0.8 1.3-0.6 0.6-1.3 0.9-0.8 0.3-1.6 0.3h-46.9q-0.7 0-1.5-0.3-0.7-0.3-1.3-0.9-0.5-0.5-0.8-1.3-0.3-0.7-0.4-1.5v-98.3q0-0.5 0.2-1 0.1-0.5 0.4-0.9 0.2-0.5 0.6-0.8 0.3-0.4 0.8-0.7l12-7.5q0.6-0.4 1.3-0.5zm31.6 41.8l-31.4-32.8-7.4 4.7v92h38.8z"/><path fill-rule="evenodd" class="b" d="m250.5 149.4c0.6-0.1 1.1-0.1 1.6 0.1 0.6 0.2 1 0.6 1.3 1.1 0.3 0.4 0.5 1 0.5 1.5v99.6q0 0.6-0.2 1.1-0.2 0.5-0.6 0.9-0.4 0.4-1 0.6-0.5 0.3-1 0.3h-30.7q-0.6 0-1.1-0.3-0.6-0.2-1-0.6-0.3-0.4-0.6-0.9-0.2-0.5-0.2-1.1v-68.8q0-0.3 0.1-0.6 0-0.3 0.1-0.5 0.1-0.3 0.3-0.5 0.2-0.2 0.4-0.4l30.7-30.8c0.4-0.4 0.9-0.6 1.4-0.7zm-2.3 9.5l-25 25.1v64.9h25z"/><path class="b" d="m275.5 105.8l-66.5 48.9-38.7-40.5q-0.5-0.6-1.2-0.9-0.7-0.4-1.5-0.5-0.8-0.1-1.5 0.1-0.8 0.1-1.5 0.5l-85.8 59.8c-5 3.4-0.3 11.6 4.7 8.1q41.4-28.8 82.9-57.6l38.7 40.6c1.3 1.3 4.1 1.9 5.7 0.7q34.8-25.5 69.4-51c4.9-3.6 0.2-11.8-4.7-8.2z"/><path class="d" d="m180.9 361.8c-100 0-180.9-80.9-180.9-180.9 0-100 80.9-180.9 180.9-180.9 100.1 0 180.9 80.9 180.9 180.9 0 100-80.8 180.9-180.9 180.9z"/><path fill-rule="evenodd" class="b" d="m265 251.1l-168.7-0.6c-2.4 0-4.8-0.5-7.1-1.4-2.2-1-4.3-2.3-6-4.1-1.7-1.7-3.1-3.7-4-6-0.9-2.3-1.4-4.7-1.4-7.1l0.4-102.7c0-2.4 0.5-4.8 1.4-7 1-2.3 2.3-4.3 4.1-6 1.7-1.8 3.7-3.1 6-4.1 2.2-0.9 4.6-1.4 7.1-1.4l168.7 0.6c2.4 0 4.8 0.5 7.1 1.4 2.2 1 4.3 2.3 6 4.1 1.7 1.7 3.1 3.7 4 6 0.9 2.2 1.4 4.7 1.4 7.1l-0.3 102.7c-0.1 2.4-0.5 4.8-1.5 7-0.9 2.3-2.3 4.3-4 6-1.7 1.8-3.8 3.1-6 4.1-2.3 0.9-4.7 1.4-7.1 1.4zm-151.9-16.1l141.4 0.4c1.2 0 2.5-0.2 3.6-0.7 1.1-0.5 2.2-1.1 3-2 0.9-0.9 1.6-1.9 2.1-3.1 0.4-1.1 0.7-2.3 0.7-3.5l0.3-89.8c0-1.3-0.2-2.5-0.7-3.6-0.5-1.2-1.2-2.2-2-3.1-0.9-0.9-1.9-1.6-3.1-2-1.1-0.5-2.3-0.8-3.6-0.8l-147.5-0.4c-1.2 0-2.4 0.2-3.6 0.7-1.1 0.5-2.1 1.1-3 2-0.9 0.9-1.6 1.9-2.1 3.1-0.4 1.1-0.7 2.3-0.7 3.5l-0.3 89.8c0 1.3 0.3 2.5 0.7 3.6 0.5 1.2 1.2 2.2 2 3.1 0.9 0.9 2 1.6 3.1 2 1.1 0.5 2.4 0.8 3.6 0.8h0.4v0.1h5.7z"/><path fill-rule="evenodd" class="b" d="m244.6 141.9q0.3 0.2 0.6 0.4 0.3 0.3 0.4 0.7 0.2 0.3 0.2 0.7v52q0 0.4-0.2 0.8-0.1 0.3-0.4 0.6-0.3 0.3-0.6 0.5-0.4 0.1-0.8 0.1h-39.1q-0.4 0-0.8-0.1-0.3-0.2-0.6-0.5-0.3-0.2-0.5-0.6-0.1-0.4-0.1-0.8v-52q0-0.4 0.1-0.7 0.2-0.4 0.5-0.7 0.3-0.3 0.6-0.4 0.4-0.2 0.8-0.2h39.1q0.4 0 0.8 0.2zm-2.8 3.7h-35.2v48.1h35.2z"/><path class="b" d="m116.4 197.6h60.6c1.1 0 2.1-0.4 2.8-1.1 0.7-0.8 1.1-1.8 1.1-2.8 0-1-0.4-2-1.1-2.8-0.7-0.7-1.7-1.1-2.8-1.1h-60.6c-1 0-2 0.4-2.8 1.1-0.7 0.8-1.1 1.8-1.1 2.8 0 1 0.4 2 1.1 2.8 0.8 0.7 1.8 1.1 2.8 1.1z"/><path class="b" d="m205.4 208.4h-89c-1.1 0-2.1 0.4-2.8 1.1-0.7 0.7-1.1 1.7-1.1 2.8 0 1 0.4 2 1.1 2.7 0.7 0.8 1.7 1.2 2.8 1.2h89c1 0 2-0.4 2.7-1.2 0.8-0.7 1.2-1.7 1.2-2.7 0-1.1-0.4-2.1-1.2-2.8-0.7-0.7-1.7-1.1-2.7-1.1z"/></svg>